<?xml version="1.0" standalone="no"?>
<!DOCTYPE svg PUBLIC "-//W3C//DTD SVG 20010904//EN"
 "http://www.w3.org/TR/2001/REC-SVG-20010904/DTD/svg10.dtd">
<svg version="1.0" xmlns="http://www.w3.org/2000/svg"
 width="512.000000pt" height="512.000000pt" viewBox="0 0 512.000000 512.000000"
 preserveAspectRatio="xMidYMid meet">

<g transform="translate(0.000000,512.000000) scale(0.100000,-0.100000)"
fill="#000000" stroke="none">
<path d="M850 5111 c-69 -21 -130 -73 -166 -141 -17 -31 -19 -60 -19 -250 0
-201 1 -218 22 -255 28 -53 78 -99 133 -124 44 -20 60 -21 1248 -21 1004 0
1203 -2 1200 -13 -2 -8 -414 -825 -916 -1815 -571 -1126 -916 -1816 -919
-1839 -7 -58 30 -122 87 -150 l44 -23 1288 0 1288 0 0 -80 0 -80 -1503 0
c-1156 0 -1506 3 -1515 12 -7 7 -12 20 -12 29 0 9 405 814 900 1789 494 975
904 1788 911 1807 23 69 -15 152 -84 183 -40 19 -75 20 -882 20 -798 0 -842
-1 -881 -19 -61 -28 -89 -73 -89 -143 0 -63 19 -97 75 -135 l33 -23 704 0
c592 0 704 -2 701 -14 -2 -7 -385 -767 -853 -1687 l-850 -1674 0 -105 c0 -96
2 -110 28 -158 38 -72 106 -138 175 -170 l57 -27 1610 0 c1551 0 1611 1 1645
19 49 26 98 74 123 121 21 37 22 54 22 255 0 201 -1 218 -22 255 -28 53 -78
99 -133 124 -44 20 -60 21 -1243 21 -967 0 -1198 2 -1195 13 2 7 410 815 908
1797 498 981 911 1800 918 1820 27 71 -9 154 -82 189 -42 21 -48 21 -1334 21
l-1292 0 0 80 0 80 1499 0 c825 0 1506 -3 1515 -6 9 -3 16 -16 16 -29 0 -13
-408 -828 -907 -1811 -813 -1603 -907 -1793 -907 -1834 0 -62 32 -112 88 -139
42 -21 53 -21 882 -21 797 0 841 1 880 19 61 28 89 73 89 143 0 63 -19 97 -75
136 l-33 22 -703 0 c-387 0 -704 3 -704 7 0 3 384 763 853 1687 l852 1681 0
105 c0 101 -1 108 -34 168 -40 74 -93 124 -171 161 l-55 26 -1595 2 c-877 1
-1606 -2 -1620 -6z"/>
</g>
</svg>
